<?xml version="1.0" standalone="no"?>
<!DOCTYPE svg PUBLIC "-//W3C//DTD SVG 20010904//EN"
 "http://www.w3.org/TR/2001/REC-SVG-20010904/DTD/svg10.dtd">
<svg version="1.0" xmlns="http://www.w3.org/2000/svg"
 width="260.000000pt" height="260.000000pt" viewBox="0 0 260.000000 260.000000"
 preserveAspectRatio="xMidYMid meet">
<metadata>
Created by potrace 1.14, written by Peter Selinger 2001-2017
</metadata>
<g transform="translate(0.000000,260.000000) scale(0.100000,-0.100000)"
fill="#000000" stroke="none">
<path d="M0 1300 l0 -1300 1300 0 1300 0 0 1300 0 1300 -1300 0 -1300 0 0
-1300z m892 1063 c13 -16 14 -50 7 -253 -4 -129 -12 -251 -18 -269 -6 -21 -7
-37 -2 -41 5 -3 12 -52 16 -110 8 -115 -2 -160 -33 -160 -11 0 -42 -27 -71
-60 -52 -60 -77 -71 -111 -50 -12 7 -16 40 -18 169 l-3 160 52 27 c46 23 57
25 88 15 43 -13 61 1 30 23 -31 21 -66 20 -111 -4 l-37 -19 -10 32 c-5 18 -10
146 -10 284 l-1 253 22 5 c13 3 55 6 93 8 39 2 77 4 86 5 9 1 23 -6 31 -15z
m1048 -803 c25 -16 50 -30 56 -30 17 0 52 -42 70 -85 20 -48 22 -167 4 -275
-11 -70 -16 -79 -61 -126 -47 -47 -49 -52 -39 -79 6 -16 19 -84 30 -150 20
-136 34 -193 59 -245 12 -26 15 -57 13 -117 -3 -78 -4 -83 -25 -80 -18 2 -23
-4 -25 -28 -5 -52 -9 -57 -34 -44 -13 7 -47 17 -78 23 l-55 11 -6 170 c-4 94
-11 206 -18 250 -6 44 -12 115 -13 158 -2 63 -5 77 -18 75 -9 -2 -19 -22 -25
-48 -5 -25 -12 -49 -15 -55 -3 -5 -5 -28 -4 -50 7 -169 7 -353 1 -417 l-9 -78
-97 0 c-153 0 -141 -31 -134 353 2 177 0 437 -5 577 -6 155 -6 259 0 265 5 6
72 10 158 10 142 0 151 1 172 23 29 29 44 28 98 -8z m-1048 -91 c18 -10 20
-17 13 -62 -3 -29 -8 -103 -10 -165 -5 -136 -9 -150 -43 -158 -93 -20 -107
-28 -110 -62 -4 -40 -19 -47 -117 -57 -92 -9 -102 1 -114 116 -4 46 -7 87 -5
90 2 3 29 9 61 13 83 10 93 23 93 116 0 82 7 94 48 84 13 -4 37 10 77 45 61
53 73 58 107 40z"/>
<path d="M1917 1503 c-3 -5 -13 -42 -22 -82 -11 -45 -23 -75 -33 -78 -22 -9
-50 30 -58 83 -6 42 -7 44 -24 29 -28 -25 -45 -74 -31 -88 7 -7 11 -61 11
-159 l0 -148 25 0 c67 0 97 44 110 160 4 36 16 83 27 104 22 45 30 158 12 176
-7 7 -14 8 -17 3z"/>
</g>
</svg>
